<mxfile host="app.diagrams.net" agent="Mozilla/5.0 (Windows NT 10.0; Win64; x64; rv:134.0) Gecko/20100101 Firefox/134.0" version="26.0.8">
  <diagram name="Page-1" id="b_G1mEHQwM99LAoYrACI">
    <mxGraphModel grid="1" page="1" gridSize="10" guides="1" tooltips="1" connect="1" arrows="1" fold="1" pageScale="1" pageWidth="850" pageHeight="1100" math="0" shadow="0">
      <root>
        <mxCell id="0" />
        <mxCell id="1" parent="0" />
        <mxCell id="piFjYsbLLNB8G9pRM2Ej-1" value="Fixed component 1" style="rounded=0;whiteSpace=wrap;html=1;" vertex="1" parent="1">
          <mxGeometry x="80" y="20" width="700" height="80" as="geometry" />
        </mxCell>
        <mxCell id="piFjYsbLLNB8G9pRM2Ej-2" value="..." style="rounded=0;whiteSpace=wrap;html=1;" vertex="1" parent="1">
          <mxGeometry x="80" y="120" width="700" height="70" as="geometry" />
        </mxCell>
        <mxCell id="piFjYsbLLNB8G9pRM2Ej-3" value="Fixed component N" style="rounded=0;whiteSpace=wrap;html=1;" vertex="1" parent="1">
          <mxGeometry x="80" y="220" width="700" height="70" as="geometry" />
        </mxCell>
        <mxCell id="piFjYsbLLNB8G9pRM2Ej-4" value="Dynamic feed" style="rounded=0;whiteSpace=wrap;html=1;" vertex="1" parent="1">
          <mxGeometry x="80" y="320" width="700" height="490" as="geometry" />
        </mxCell>
      </root>
    </mxGraphModel>
  </diagram>
</mxfile>
